<?xml version="1.0" encoding="UTF-8" standalone="no"?>
<svg
   xmlns:svg="http://www.w3.org/2000/svg"
   xmlns="http://www.w3.org/2000/svg"
   id="svg863"
   version="1.1"
   viewBox="0 0 26 25.999761"
   height="25.999762mm"
   width="26mm">
  <g
     transform="translate(-84.928348,-118.03593)"
     id="layer1">
    <path
       style="fill:#edc08c;fill-opacity:1;stroke-width:0.06742518"
       d="m 101.44525,119.10059 c -0.24265,-0.0583 -0.49278,-0.0771 -0.74024,-0.0567 l -0.972924,4.92984 c 0.01356,-0.006 0.0269,-0.0127 0.04046,-0.0183 0.573884,-0.22252 1.147444,-0.32802 1.721324,-0.31631 0.58559,0.0234 1.15966,0.16395 1.72183,0.4216 0.0792,0.0372 0.15725,0.0769 0.23465,0.11803 0.63679,-0.54903 1.23152,-1.14018 1.78724,-1.77029 l -2.68727,-2.68701 c -0.31688,-0.31689 -0.70067,-0.52372 -1.10508,-0.6209 z m 5.102,4.61781 c -0.60086,0.51094 -1.15816,1.03627 -1.63135,1.58977 0.41277,0.43139 0.74839,0.88241 1.005,1.35286 0.28108,0.51532 0.47428,0.98953 0.57968,1.42286 l -1.739,0.75537 c -0.082,-0.40992 -0.22869,-0.80221 -0.4395,-1.17698 -0.18738,-0.3748 -0.43897,-0.72024 -0.75518,-1.03646 -0.57389,-0.57388 -1.19459,-0.87849 -1.86215,-0.91363 -0.64415,-0.0351 -1.26487,0.24574 -1.862178,0.84305 -0.327932,0.32793 -0.562318,0.66795 -0.702908,1.01927 -0.128815,0.36306 -0.20477,0.73165 -0.228148,1.10644 -0.01172,0.38649 0.01753,0.7789 0.08779,1.17709 0.08197,0.40991 0.16971,0.83735 0.263412,1.28241 0.0937,0.44503 0.175849,0.91354 0.24612,1.40543 0.07027,0.49191 0.07614,0.98984 0.01758,1.49344 -0.03512,0.50361 -0.169966,1.01295 -0.404086,1.52829 -0.210824,0.51533 -0.568096,1.02472 -1.071704,1.52832 -0.456762,0.45675 -0.960228,0.8199 -1.510677,1.08927 -0.550475,0.26936 -1.136098,0.40987 -1.756818,0.4216 -0.59731,0.0117 -1.218077,-0.11734 -1.862221,-0.38671 -0.177586,-0.077 -0.354613,-0.16964 -0.531231,-0.27449 -0.612231,0.55052 -1.236191,1.08931 -1.787843,1.70042 l 2.703134,2.70303 c 0.915628,0.91563 2.390021,0.91547 3.305654,-1.4e-4 l 12.630984,-12.63094 c 0.91563,-0.91564 0.91566,-2.38969 4e-5,-3.30532 z m -9.452901,7.89156 -6.158029,1.21571 -5.23e-4,0.002 c 0.117112,0.4919 0.275481,0.95436 0.474598,1.3877 0.222559,0.4333 0.544268,0.86085 0.965891,1.28247 0.632438,0.63244 1.294392,0.94297 1.985378,0.93125 0.702715,0 1.352507,-0.29898 1.949807,-0.89628 0.316219,-0.31622 0.544566,-0.64976 0.685151,-1.00107 0.140569,-0.35132 0.222559,-0.71453 0.245995,-1.08935 0.03512,-0.36304 0.02355,-0.73781 -0.03501,-1.1243 -0.03538,-0.23351 -0.07341,-0.46984 -0.113072,-0.70761 z m -7.977954,1.57504 -3.180084,0.62767 c -0.05449,0.6599 0.170595,1.33828 0.677615,1.84529 l 2.671718,2.67192 c 0.571755,-0.4906 1.158462,-0.95635 1.663483,-1.55818 -0.499165,-0.51766 -0.885284,-1.03023 -1.155321,-1.53791 -0.292804,-0.55047 -0.497925,-1.0949 -0.615047,-1.63364 -0.0325,-0.138 -0.05294,-0.27745 -0.06236,-0.41515 z"
       id="path5178" />
  </g>
</svg>
